#!OML:ASF X:\für Bonn\!DataBase\2005_08_11_Bastian_Final\c3d\Bastian.ASF
:FULLY-SPECIFIED
:DEGREES
104
root 1.15313 17.1095 19.5902 -555.256 -25.9504 -178.812
lowerback 29.2275 -1.65212 3.55602
upperback 17.1877 -5.93549 1.60174
thorax 3.46771 -4.72954 1.1119
lowerneck -1.08933 -11.1846 -12.6345
upperneck -15.8422 -14.8463 14.4823
head -2.42579 -7.95341 6.49408
rclavicle -1.87852e-014 -1.78906e-015
rhumerus -23.103 9.54617 -85.2829
rradius 32.7181
rwrist -3.09081
rhand -14.5094 3.9644
rfingers 7.12502
rthumb 11.6379 -25.6924
lclavicle -1.87852e-014 -1.78906e-015
lhumerus -25.8039 -2.34838 84.8626
lradius 36.4241
lwrist 33.3848
lhand -4.15428 -8.91987
lfingers 7.12502
lthumb 21.6058 19.8948
rfemur -11.5674 -2.98592 18.2591
rtibia 33.4579
rfoot -1.97279 -13.8306
rtoes -11.6752
lfemur 10.1486 -1.24151 -11.1814
ltibia 41.9767
lfoot -7.97574 5.2293
ltoes -41.4488
105
root 1.1886 17.1094 19.544 -555.402 -26.0495 -178.716
lowerback 29.838 -1.5897 3.69073
upperback 17.3169 -5.90031 1.66869
thorax 3.36206 -4.74802 1.14155
lowerneck -1.08011 -11.2228 -12.5121
upperneck -16.0676 -14.8986 14.5515
head -2.48974 -8.00083 6.50827
rclavicle -1.16289e-014 2.66371e-014
rhumerus -22.7788 9.86351 -85.1675
rradius 33.028
rwrist -3.27794
rhand -14.6394 3.95396
rfingers 7.12502
rthumb 11.5125 -25.7099
lclavicle -1.16289e-014 2.66371e-014
lhumerus -25.7344 -1.75038 84.7194
lradius 36.3432
lwrist 34.0178
lhand -3.84867 -9.23544
lfingers 7.12502
lthumb 21.8993 19.5452
rfemur -11.3745 -3.13234 18.5
rtibia 33.5061
rfoot -2.045 -13.8592
rtoes -11.1198
lfemur 8.76051 -1.17138 -10.9841
ltibia 44.4051
lfoot -6.8093 5.52466
ltoes -41.076
106
root 1.22698 17.1082 19.4993 -555.531 -26.1519 -178.631
lowerback 30.4713 -1.52049 3.78389
upperback 17.4109 -5.8522 1.75369
thorax 3.21159 -4.76108 1.21597
lowerneck -1.04746 -11.2645 -12.4249
upperneck -16.233 -14.958 14.5772
head -2.54053 -8.04489 6.51254
rclavicle -2.5842e-015 7.35503e-015
rhumerus -22.4973 10.2147 -85.0253
rradius 33.3327
rwrist -3.4696
rhand -14.825 3.977
rfingers 7.12502
rthumb 11.3335 -25.6968
lclavicle -2.5842e-015 7.35503e-015
lhumerus -25.6681 -1.10522 84.5818
lradius 36.2477
lwrist 34.6142
lhand -3.54223 -9.48624
lfingers 7.12502
lthumb 22.1935 19.2597
rfemur -11.1888 -3.20375 18.7382
rtibia 33.527
rfoot -2.15053 -13.9492
rtoes -10.7099
lfemur 7.38714 -1.02044 -10.7691
ltibia 46.6731
lfoot -5.76177 5.68573
ltoes -40.6094
107
root 1.26098 17.1122 19.4552 -555.646 -26.2599 -178.567
lowerback 31.0434 -1.45079 3.92608
upperback 17.5337 -5.79911 1.81533
thorax 3.11988 -4.76695 1.22716
lowerneck -0.969456 -11.3216 -12.3797
upperneck -16.458 -15.033 14.703
head -2.60108 -8.10281 6.55811
rclavicle 1.22253e-014 -1.43125e-014
rhumerus -22.2018 10.5092 -84.8773
rradius 33.6687
rwrist -3.77078
rhand -14.9934 4.03914
rfingers 7.12502
rthumb 11.1711 -25.6435
lclavicle 1.22253e-014 -1.43125e-014
lhumerus -25.5453 -0.587357 84.444
lradius 36.1362
lwrist 35.2549
lhand -3.39747 -9.77319
lfingers 7.12502
lthumb 22.3325 18.9561
rfemur -10.9816 -3.36586 18.9311
rtibia 33.5088
rfoot -2.31402 -13.9795
rtoes -10.3293
lfemur 6.0474 -0.807715 -10.6029
ltibia 48.7909
lfoot -4.90167 5.74132
ltoes -40.095
108
root 1.28967 17.1195 19.412 -555.792 -26.3837 -178.473
lowerback 31.9524 -1.44662 4.20971
upperback 17.5922 -5.78187 1.89953
thorax 2.79157 -4.78033 1.14532
lowerneck -0.910296 -11.3787 -12.3349
upperneck -16.6885 -15.1076 14.8267
head -2.66051 -8.16125 6.60244
rclavicle 3.79679e-014 -4.65156e-014
rhumerus -21.8722 10.8405 -84.7137
rradius 34.0039
rwrist -4.01455
rhand -15.2052 4.08404
rfingers 7.12502
rthumb 10.9668 -25.6095
lclavicle 3.79679e-014 -4.65156e-014
lhumerus -25.3852 -0.132913 84.3131
lradius 36.0885
lwrist 35.9094
lhand -3.48325 -9.9984
lfingers 7.12502
lthumb 22.2501 18.7408
rfemur -10.7235 -3.59756 19.1257
rtibia 33.4408
rfoot -2.44228 -13.9349
rtoes -10.3034
lfemur 4.7628 -0.598428 -10.4615
ltibia 50.769
lfoot -4.17314 5.63184
ltoes -38.9841
109
root 1.31754 17.128 19.3701 -555.899 -26.513 -178.421
lowerback 32.4573 -1.38356 4.40544
upperback 17.76 -5.74145 1.96959
thorax 2.79629 -4.79399 1.12704
lowerneck -0.903434 -11.4612 -12.3457
upperneck -16.899 -15.2117 14.9758
head -2.69505 -8.2326 6.65559
rclavicle 7.99114e-014 -8.3092e-014
rhumerus -21.4835 11.0908 -84.4854
rradius 34.3291
rwrist -4.31058
rhand -15.395 4.179
rfingers 7.12502
rthumb 10.7838 -25.5242
lclavicle 7.99114e-014 -8.3092e-014
lhumerus -25.1681 0.238084 84.221
lradius 36.0666
lwrist 36.5536
lhand -3.73145 -10.1731
lfingers 7.12502
lthumb 22.0118 18.5943
rfemur -10.4714 -3.80084 19.2675
rtibia 33.3451
rfoot -2.59932 -13.9194
rtoes -10.2092
lfemur 3.48145 -0.335759 -10.39
ltibia 52.5943
lfoot -3.61934 5.2956
ltoes -37.437
110
root 1.34482 17.137 19.3291 -556.009 -26.6457 -178.333
lowerback 32.9389 -1.32461 4.61699
upperback 17.9426 -5.70915 2.05798
thorax 2.83099 -4.81358 1.11809
lowerneck -0.928794 -11.5361 -12.3592
upperneck -17.1177 -15.3053 15.1218
head -2.72823 -8.29944 6.70721
rclavicle -1.61016e-014 3.04141e-014
rhumerus -21.1193 11.4068 -84.232
rradius 34.7364
rwrist -4.5905
rhand -15.5706 4.22954
rfingers 7.12502
rthumb 10.6143 -25.4824
lclavicle -1.61016e-014 3.04141e-014
lhumerus -24.9023 0.574278 84.1504
lradius 36.0404
lwrist 37.1096
lhand -4.23867 -10.404
lfingers 7.12502
lthumb 21.5248 18.42
rfemur -10.2288 -4.06339 19.4385
rtibia 33.2384
rfoot -2.7441 -13.8471
rtoes -10.3529
lfemur 2.20971 -0.0688467 -10.3125
ltibia 54.2374
lfoot -3.29489 4.74373
ltoes -35.3888
111
root 1.37071 17.1426 19.2902 -556.108 -26.7775 -178.272
lowerback 33.4309 -1.26775 4.82579
upperback 18.1146 -5.67505 2.13749
thorax 2.85269 -4.83089 1.10252
lowerneck -0.930511 -11.6155 -12.3944
upperneck -17.3394 -15.4048 15.2804
head -2.76216 -8.3691 6.76716
rclavicle 7.23576e-014 -5.36719e-014
rhumerus -20.7788 11.6849 -83.9595
rradius 35.1464
rwrist -4.82725
rhand -15.728 4.28613
rfingers 7.12502
rthumb 10.4626 -25.4335
lclavicle 7.23576e-014 -5.36719e-014
lhumerus -24.6898 0.418379 84.1451
lradius 36.1072
lwrist 38.0132
lhand -5.10382 -10.672
lfingers 7.12502
lthumb 20.6937 18.2447
rfemur -10.0053 -4.28216 19.5745
rtibia 33.1713
rfoot -2.93848 -13.8292
rtoes -10.3463
lfemur 0.987391 0.197658 -10.3088
ltibia 55.6465
lfoot -3.17906 3.96873
ltoes -32.6972
112
root 1.39679 17.1472 19.2522 -556.194 -26.9111 -178.186
lowerback 33.9154 -1.22068 5.04289
upperback 18.2796 -5.64737 2.21617
thorax 2.87219 -4.84956 1.08346
lowerneck -0.967285 -11.6888 -12.42
upperneck -17.5273 -15.4917 15.4428
head -2.78207 -8.43176 6.82278
rclavicle 1.80894e-014 -2.36554e-014
rhumerus -20.409 11.8928 -83.6907
rradius 35.5162
rwrist -5.0102
rhand -15.8538 4.38348
rfingers 7.12502
rthumb 10.3412 -25.3423
lclavicle 1.80894e-014 -2.36554e-014
lhumerus -24.4863 0.0822404 84.1304
lradius 36.2166
lwrist 38.8569
lhand -6.14883 -10.9047
lfingers 7.12502
lthumb 19.6893 18.1182
rfemur -9.83538 -4.49106 19.7395
rtibia 33.1433
rfoot -3.13183 -13.7982
rtoes -10.5568
lfemur -0.215394 0.486932 -10.3153
ltibia 56.7903
lfoot -3.223 2.86962
ltoes -30.1733
113
root 1.42122 17.1487 19.2161 -556.261 -27.0558 -178.149
lowerback 34.4518 -1.17896 5.19611
upperback 18.4042 -5.62898 2.30067
thorax 2.83434 -4.87612 1.1137
lowerneck -0.974766 -11.7495 -12.4498
upperneck -17.706 -15.5679 15.5586
head -2.80981 -8.48572 6.86772
rclavicle -4.77083e-015 8.74653e-015
rhumerus -20.1239 12.3241 -83.3973
rradius 35.9618
rwrist -5.35367
rhand -16.0227 4.43592
rfingers 7.12502
rthumb 10.1783 -25.2979
lclavicle -4.77083e-015 8.74653e-015
lhumerus -24.3449 -0.114192 84.1177
lradius 36.3278
lwrist 39.4972
lhand -7.21644 -11.1466
lfingers 7.12502
lthumb 18.6626 17.9782
rfemur -9.69336 -4.7057 19.8435
rtibia 33.1643
rfoot -3.33845 -13.7612
rtoes -10.6791
lfemur -1.34312 0.781309 -10.4373
ltibia 57.6533
lfoot -3.37473 1.63171
ltoes -28.2049
114
root 1.44533 17.1491 19.1825 -556.34 -27.1676 -178.034
lowerback 34.9939 -1.16809 5.4263
upperback 18.5043 -5.61571 2.36404
thorax 2.76675 -4.89491 1.08638
lowerneck -0.951217 -11.7949 -12.4578
upperneck -17.8577 -15.6165 15.7141
head -2.83517 -8.52755 6.92308
rclavicle 5.96354e-016 -2.74323e-014
rhumerus -19.8117 12.634 -83.1621
rradius 36.3149
rwrist -5.55052
rhand -16.1611 4.49176
rfingers 7.12502
rthumb 10.0448 -25.2485
lclavicle 5.96354e-016 -2.74323e-014
lhumerus -24.2022 -0.339213 84.0312
lradius 36.4009
lwrist 39.9552
lhand -8.24652 -11.3856
lfingers 7.12502
lthumb 17.6716 17.8313
rfemur -9.59531 -4.88164 20.0305
rtibia 33.2076
rfoot -3.55922 -13.7454
rtoes -10.2709
lfemur -2.43202 1.12212 -10.5057
ltibia 58.243
lfoot -3.61732 0.19746
ltoes -26.8459
115
root 1.46799 17.1496 19.1525 -556.384 -27.2937 -177.977
lowerback 35.5555 -1.14977 5.58672
upperback 18.5974 -5.6117 2.44231
thorax 2.6916 -4.92584 1.11522
lowerneck -0.994622 -11.8332 -12.4277
upperneck -17.9941 -15.6634 15.7712
head -2.85916 -8.56482 6.93876
rclavicle 3.18055e-015 -2.68359e-014
rhumerus -19.5238 13.0691 -82.8592
rradius 36.754
rwrist -5.87953
rhand -16.2414 4.53906
rfingers 7.12502
rthumb 9.96725 -25.205
lclavicle 3.18055e-015 -2.68359e-014
lhumerus -24.041 -0.414114 83.9621
lradius 36.4484
lwrist 40.1396
lhand -9.15644 -11.5477
lfingers 7.12502
lthumb 16.7958 17.7459
rfemur -9.51775 -5.08959 20.144
rtibia 33.2704
rfoot -3.76593 -13.6863
rtoes -10.1254
lfemur -3.46645 1.43024 -10.7069
ltibia 58.58
lfoot -3.96666 -1.27826
ltoes -25.8649
116
root 1.48969 17.1505 19.1262 -556.435 -27.425 -177.891
lowerback 36.1349 -1.15818 5.7898
upperback 18.6927 -5.62971 2.50498
thorax 2.61474 -4.96475 1.11338
lowerneck -1.07587 -11.8618 -12.3765
upperneck -18.1279 -15.6899 15.8717
head -2.87593 -8.59581 6.96227
rclavicle -4.35338e-014 6.54002e-014
rhumerus -19.1495 13.3987 -82.59
rradius 37.0853
rwrist -6.07551
rhand -16.3886 4.65714
rfingers 7.12502
rthumb 9.8253 -25.0936
lclavicle -4.35338e-014 6.54002e-014
lhumerus -23.8445 -0.438316 83.8212
lradius 36.4574
lwrist 40.1383
lhand -9.85607 -11.6863
lfingers 7.12502
lthumb 16.1222 17.6631
rfemur -9.46455 -5.35002 20.2679
rtibia 33.3317
rfoot -3.96279 -13.5969
rtoes -9.97716
lfemur -4.4439 1.6943 -10.9414
ltibia 58.6792
lfoot -4.37235 -2.82734
ltoes -25.013
